<svg width="117" height="117" viewBox="0 0 117 117" fill="none" xmlns="http://www.w3.org/2000/svg">
<g id="icon-youtube">
<path id="back" d="M58.5 3.65625C88.7894 3.65625 113.344 28.2106 113.344 58.5C113.344 88.7894 88.7894 113.344 58.5 113.344C28.2106 113.344 3.65625 88.7894 3.65625 58.5C3.65625 28.2106 28.2106 3.65625 58.5 3.65625Z" stroke="#008FFF" stroke-width="2.4375"/>
<path id="Combined Shape" fill-rule="evenodd" clip-rule="evenodd" d="M81.3762 44.0581C82.8664 45.5736 83.3528 49.0151 83.3528 49.0151C83.3528 49.0151 83.85 53.0576 83.85 57.0985V60.8881C83.85 64.9305 83.3528 68.9714 83.3528 68.9714C83.3528 68.9714 82.8664 72.4129 81.3762 73.9284C79.6725 75.7213 77.7833 75.9065 76.7155 76.0112C76.5981 76.0227 76.4906 76.0333 76.3944 76.0449C69.436 76.5506 58.9875 76.5662 58.9875 76.5662C58.9875 76.5662 46.059 76.4476 42.081 76.0636C41.8925 76.0282 41.6641 76.0007 41.4053 75.9695C40.1452 75.8177 38.1675 75.5794 36.5973 73.9284C35.1071 72.4129 34.6222 68.9714 34.6222 68.9714C34.6222 68.9714 34.125 64.9305 34.125 60.8881V57.0985C34.125 53.0576 34.6222 49.0151 34.6222 49.0151C34.6222 49.0151 35.1071 45.5736 36.5973 44.0581C38.3048 42.2627 40.1957 42.0795 41.2636 41.976C41.3794 41.9648 41.4855 41.9545 41.5806 41.9432C48.539 41.4375 58.9766 41.4375 58.9766 41.4375H58.9984C58.9984 41.4375 69.436 41.4375 76.3944 41.9432C76.4895 41.9545 76.5957 41.9648 76.7115 41.976C77.7786 42.0795 79.6703 42.263 81.3762 44.0581ZM53.8518 51.4468L53.8534 65.4799L67.2869 58.4876L53.8518 51.4468Z" fill="#008FFF"/>
</g>
</svg>
